<svg width="28" height="28" viewBox="0 0 28 28" fill="none" xmlns="http://www.w3.org/2000/svg">
<path d="M14 0C6.27083 0 0 6.27083 0 14C0 21.7292 6.27083 28 14 28C21.7292 28 28 21.7292 28 14C28 6.27083 21.7292 0 14 0ZM14 25.7658C7.51333 25.7658 2.23417 20.4867 2.23417 14C2.23417 13.1483 2.3275 12.3258 2.5025 11.5267C5.62917 10.7625 8.63333 12.18 8.63333 12.18C7.245 12.1042 6.475 12.6642 5.69333 12.9617C5.285 13.1192 4.49167 13.2358 4.49167 13.2358C6.59167 13.3117 7.00583 13.1775 7.98583 13.1892C10.6167 13.2358 12.81 14.1517 12.81 15.0617C12.81 16.2108 9.45 16.24 9.45 16.24C13.9708 18.8592 17.0975 18.3925 19.4542 19.2442C21.2217 19.8858 22.295 21.3208 22.295 21.3208C22.295 19.3317 21.1225 17.5292 21.1225 17.5292C21.9392 15.2658 20.8133 13.5333 20.8133 13.5333C21.2858 16.1758 20.3525 16.2867 20.3525 16.2867C16.7183 5.2675 10.0742 4.90583 10.0742 4.90583C14.7992 7.44333 16.2867 10.4708 16.2867 10.4708C15.2658 9.49083 13.9125 8.82583 13.9125 8.82583C14.14 9.61333 14 10.0158 14 10.0158C13.055 8.8375 11.7833 8.27167 11.7833 8.27167C12.0633 8.9075 12.0108 9.415 12.0108 9.415C9.58417 6.86 5.915 5.58833 5.8275 5.55917C7.945 3.5 10.8267 2.23417 14 2.23417C20.4867 2.23417 25.7658 7.51333 25.7658 14C25.7658 20.4867 20.4867 25.7658 14 25.7658ZM16.205 14.3383C16.205 14.3383 16.625 13.8075 16.59 12.5767C16.59 12.5767 17.8442 14.0408 18.2933 15.3942C18.2875 15.3883 17.2725 14.6008 16.205 14.3383Z" fill="url(#paint0_linear_1_6)"/>
<defs>
<linearGradient id="paint0_linear_1_6" x1="0" y1="0" x2="30.1047" y2="2.4831" gradientUnits="userSpaceOnUse">
<stop stop-color="#CC0033"/>
<stop offset="1" stop-color="#FF0F4B"/>
</linearGradient>
</defs>
</svg>
